<svg width="83" height="35" viewBox="0 0 83 35" fill="none" xmlns="http://www.w3.org/2000/svg">
<path d="M17.2706 19.6453L14.1135 20.2052L17.0644 20.4483L15.3287 27.2385L8.99732 28.3608L12.1348 16.1115L13.7232 15.8291L0.387695 14.6258L18.7461 11.3719C19.1192 11.3056 19.4556 11.5266 19.4924 11.9122L20.2583 18.3511L22.2002 10.758L28.5316 9.63569L23.6192 28.8298L18.2403 27.7665L17.2682 19.6453H17.2706ZM42.4808 22.4252L26.6634 25.2272L30.7534 9.22312L46.5708 6.42112L45.3384 11.2344L32.6953 13.474L35.6462 13.7171L35.44 14.5202L43.3401 13.1204L42.5373 16.308L34.62 17.7102L34.21 19.3138L43.6961 17.6316L42.4833 22.4228L42.4808 22.4252ZM63.5618 3.41037C63.9914 3.33424 64.3277 3.62893 64.3277 4.0415C64.3277 4.11517 64.3081 4.17411 64.2909 4.25269L60.6109 18.6532C60.5176 19.0068 60.2181 19.2819 59.8818 19.3433L45.6502 21.8653C45.2206 21.9414 44.8843 21.6467 44.8843 21.2538C44.8843 21.1802 44.8843 21.1237 44.9039 21.0451L48.5839 6.64459C48.6772 6.29096 48.9767 5.99627 49.3303 5.93242L63.5618 3.41037V3.41037ZM57.007 9.16664L50.6756 10.2889L53.6461 10.5296L52.2075 16.1262L55.3646 15.5663L57.007 9.16664ZM78.0904 16.1164L71.759 17.2387L70.9194 10.1219L67.7623 10.6818L70.7132 10.925L68.975 17.7323L62.6436 18.8546L66.7336 2.85046L72.3727 1.85097C72.7655 1.78221 73.1019 2.02042 73.1387 2.40597L73.9046 8.84494L75.8465 1.23458L82.1779 0.112305L78.0879 16.1164H78.0904Z" fill="#332577"/>
<path d="M43.6103 32.9381C43.5538 33.1493 43.377 33.3138 43.1659 33.3507L34.0898 34.9592L34.8239 32.1007L40.4802 31.0988L40.7257 30.141L35.6586 31.0398C35.4033 31.084 35.202 30.9097 35.202 30.6641C35.202 30.6297 35.202 30.5855 35.2142 30.5511L36.4393 25.7796C36.4957 25.5684 36.6725 25.3916 36.8738 25.3572L45.9597 23.7462L45.2257 26.617L37.6864 27.9529L39.4466 28.0978L39.3239 28.5767L44.391 27.6779C44.6365 27.6337 44.8353 27.7982 44.8353 28.0438C44.8353 28.088 44.8353 28.1224 44.8255 28.169L43.6127 32.9381H43.6103ZM54.3336 31.0374C54.2895 31.2461 54.1004 31.4131 53.8991 31.4475L45.4147 32.9504C45.1594 32.9946 44.9581 32.8202 44.9581 32.5869C44.9581 32.5427 44.9581 32.5083 44.9679 32.4617L47.1725 23.8739C47.2166 23.6652 47.4057 23.4859 47.607 23.4516L56.0914 21.9486C56.359 21.902 56.5603 22.0763 56.5603 22.3219C56.5603 22.3661 56.548 22.403 56.5382 22.4472L55.7133 25.6666L51.9376 26.3346L52.1831 25.3769L48.4073 26.0448L50.1774 26.1873L49.3206 29.5246L51.2035 29.1906L51.449 28.2329L55.2248 27.5649L54.3336 31.03V31.0374ZM59.332 30.4848L55.5562 31.1528L57.9056 21.9732C57.9621 21.762 58.1389 21.5852 58.35 21.5484L66.8246 20.0454C67.0799 20.0012 67.2812 20.1756 67.2812 20.4212C67.2812 20.4654 67.2812 20.4997 67.2689 20.5464L64.9858 29.4804L61.21 30.1484L61.9441 27.2899L60.0513 27.6263L59.3271 30.4824L59.332 30.4848ZM59.1528 24.1465L60.913 24.2914L60.5447 25.7158L62.4375 25.3793L62.9163 23.4786L59.1528 24.1465V24.1465ZM75.4882 27.6214L71.7125 28.2894L71.2117 24.0458L69.3287 24.3798L71.0889 24.5247L70.0529 28.5841L66.2771 29.252L68.7149 19.709L72.0783 19.1123C72.3115 19.0705 72.5128 19.2129 72.5349 19.4438L72.9915 23.2821L74.1503 18.7439L77.926 18.0759L75.4882 27.619V27.6214Z" fill="#B000FF"/>
</svg>