<svg width="42" height="41" viewBox="0 0 42 41" fill="none" xmlns="http://www.w3.org/2000/svg">
<path d="M41.3434 20.3939C41.3434 15.0188 39.2082 9.8639 35.4074 6.06317C31.6067 2.26243 26.4518 0.127197 21.0767 0.127197C15.7017 0.127197 10.5468 2.26243 6.74603 6.06317C2.94529 9.8639 0.810059 15.0188 0.810059 20.3939H41.3434Z" fill="#8E5CEB"/>
<path d="M41.3434 20.3939C41.3434 25.769 39.2082 30.9239 35.4074 34.7246C31.6067 38.5254 26.4518 40.6606 21.0767 40.6606C15.7017 40.6606 10.5468 38.5254 6.74603 34.7246C2.94529 30.9239 0.810059 25.769 0.810059 20.3939H41.3434Z" fill="#361451"/>
<path d="M38.1426 20.3938C38.1426 15.8675 36.3445 11.5265 33.1439 8.32586C29.9433 5.12524 25.6023 3.32715 21.0759 3.32715C16.5496 3.32715 12.2086 5.12524 9.00799 8.32586C5.80737 11.5265 4.00928 15.8675 4.00928 20.3938H38.1426Z" fill="#361451"/>
<path d="M38.1426 20.3939C38.1426 24.9203 36.3445 29.2613 33.1439 32.4619C29.9433 35.6625 25.6023 37.4606 21.0759 37.4606C16.5496 37.4606 12.2086 35.6625 9.00799 32.4619C5.80737 29.2613 4.00928 24.9203 4.00928 20.3939H38.1426Z" fill="#EBFF6F"/>
<path d="M34.9438 20.3939C34.9438 16.7162 33.4828 13.1892 30.8823 10.5887C28.2818 7.98817 24.7548 6.52722 21.0771 6.52722C17.3994 6.52722 13.8724 7.98817 11.2719 10.5887C8.6714 13.1892 7.21045 16.7162 7.21045 20.3939H34.9438Z" fill="#EBFF6F"/>
<path d="M34.9438 20.3939C34.9438 24.0716 33.4828 27.5986 30.8823 30.1991C28.2818 32.7996 24.7548 34.2606 21.0771 34.2606C17.3994 34.2606 13.8724 32.7996 11.2719 30.1991C8.6714 27.5986 7.21045 24.0716 7.21045 20.3939H34.9438Z" fill="#32124F"/>
<path d="M21.0756 35.9796C29.6834 35.9796 36.6614 29.0016 36.6614 20.3938C36.6614 11.786 29.6834 4.80798 21.0756 4.80798C12.4678 4.80798 5.48975 11.786 5.48975 20.3938C5.48975 29.0016 12.4678 35.9796 21.0756 35.9796Z" fill="#FF3EAA"/>
<path d="M11.4504 25.0399V23.4559H13.5024V24.4099L14.1864 25.0939H18.1104L18.8304 24.3739V22.0519L18.1284 21.3499H13.3404L11.4864 19.5139V16.1479L13.3404 14.2939H18.8844L20.7384 16.1479V17.7499H18.6864V16.7779L17.9844 16.0939H14.2404L13.5384 16.7779V18.8659L14.2404 19.5499H19.0284L20.8825 21.4039V25.0039L18.9924 26.8939H13.3044L11.4504 25.0399ZM25.4637 16.0759H21.6837V14.2939H31.3317V16.0759H27.5517V26.8939H25.4637V16.0759Z" fill="white"/>
</svg>
