<svg width="25" height="24" viewBox="0 0 25 24" fill="none" xmlns="http://www.w3.org/2000/svg">
<path d="M12.8251 0.639282C15.8193 0.639282 18.8134 0.639282 21.8076 0.639282C23.566 0.639282 24.7268 1.79749 24.7268 3.55196C24.7268 9.22101 24.7268 14.8908 24.7268 20.5599C24.7268 22.3143 23.5652 23.4726 21.8068 23.4726C15.8185 23.4726 9.83019 23.4726 3.8419 23.4726C2.08499 23.4733 0.921875 22.3128 0.921875 20.5599C0.921875 14.8908 0.921875 9.22101 0.921875 3.55196C0.921875 1.79902 2.08423 0.640045 3.84266 0.639282C6.83681 0.639282 9.83096 0.639282 12.8251 0.639282ZM12.8159 2.46619C9.82179 2.46619 6.82687 2.46619 3.83273 2.46619C3.09298 2.46619 2.75367 2.80778 2.75367 3.5512C2.75367 9.22101 2.75367 14.8916 2.75367 20.5614C2.75367 21.2995 3.09909 21.6464 3.83502 21.6464C9.82408 21.6464 15.8131 21.6464 21.8022 21.6464C22.5603 21.6464 22.8965 21.3079 22.8965 20.5462C22.8965 14.8855 22.8965 9.22482 22.8965 3.56416C22.8965 2.80626 22.5565 2.46619 21.7999 2.46619C18.8058 2.46619 15.8108 2.46619 12.8167 2.46619H12.8159ZM8.6709 8.79402C8.86118 8.61103 9.053 8.42956 9.24176 8.24504C9.43892 8.05137 9.63914 7.86151 9.82637 7.65793C10.1779 7.27592 10.1619 6.72465 9.80039 6.37543C9.44656 6.03384 8.89786 6.01859 8.5364 6.37314C7.6056 7.2866 6.68244 8.20844 5.76692 9.13638C5.40622 9.50237 5.41233 10.0414 5.75164 10.3968C5.97173 10.627 6.24761 10.6888 6.55711 10.6888C9.76906 10.685 12.981 10.6865 16.1929 10.6865C17.0412 10.6865 17.8895 10.6888 18.7377 10.685C19.1611 10.6835 19.4935 10.4585 19.6319 10.0963C19.8711 9.46958 19.4087 8.86036 18.6873 8.86036C15.4662 8.85883 12.2443 8.86036 9.02319 8.86036C8.91926 8.86036 8.81533 8.86036 8.71063 8.86036L8.67242 8.79479L8.6709 8.79402ZM16.2831 16.9106C15.9331 17.2751 15.9423 17.8195 16.2854 18.1718C16.6293 18.5256 17.1872 18.5652 17.5471 18.2145C18.4947 17.2911 19.4293 16.354 20.3586 15.4124C20.6116 15.1562 20.6742 14.8314 20.5481 14.4867C20.4266 14.1543 20.179 13.9621 19.8367 13.8965C19.7259 13.8752 19.6089 13.8836 19.4943 13.8836C16.2724 13.8836 13.0505 13.8836 9.82943 13.8836C9.00944 13.8836 8.19021 13.8813 7.37022 13.8851C6.94303 13.8874 6.61595 14.1078 6.47687 14.473C6.23767 15.1013 6.69772 15.7097 7.42066 15.7097C10.6425 15.7113 13.8644 15.7105 17.0855 15.7105C17.1895 15.7105 17.2942 15.7105 17.4906 15.7105C17.0481 16.1497 16.6568 16.5218 16.2831 16.9114V16.9106Z" fill="#D3FF00"/>
</svg>
