<svg width="25" height="26" viewBox="0 0 25 26" fill="none" xmlns="http://www.w3.org/2000/svg">
<path d="M5.50199 16.0261C4.78458 15.6362 4.11755 15.2741 3.44981 14.912C2.80407 14.5621 2.16116 14.2071 1.51045 13.8664C1.17055 13.689 0.934964 13.4452 0.933544 13.0446C0.932125 12.6448 1.16346 12.401 1.50407 12.2193C2.75298 11.5528 3.99621 10.8743 5.24086 10.2C5.3104 10.1623 5.37781 10.1202 5.48496 10.0575C5.39342 10.0005 5.32743 9.95343 5.25576 9.91423C4.0033 9.23498 2.75298 8.55288 1.49626 7.88147C1.15494 7.69971 0.928577 7.45168 0.933544 7.05183C0.938512 6.6648 1.16559 6.42674 1.49555 6.24856C5.10106 4.30346 8.70374 2.3548 12.3043 0.400444C12.6562 0.209428 12.9791 0.201587 13.3332 0.393317C16.9494 2.3548 20.5698 4.30988 24.1874 6.26923C24.6486 6.51869 24.8523 6.96059 24.6472 7.37185C24.5485 7.57071 24.3562 7.75745 24.1604 7.8665C22.9164 8.56072 21.659 9.23141 20.4066 9.90995C20.3377 9.94701 20.2717 9.98978 20.1639 10.0532C20.2696 10.1152 20.3477 10.1637 20.4279 10.2072C21.6881 10.89 22.9498 11.5699 24.2086 12.2556C24.6514 12.4965 24.8466 12.9391 24.6479 13.3454C24.5535 13.5378 24.3726 13.7239 24.1852 13.8286C22.9491 14.5186 21.7002 15.1857 20.4555 15.8607C20.3711 15.9063 20.2874 15.9541 20.1603 16.0253C20.2696 16.0895 20.3463 16.1387 20.4264 16.1821C21.6945 16.87 22.9619 17.557 24.2306 18.2434C24.5372 18.4095 24.7132 18.6632 24.7146 19.0132C24.716 19.3624 24.5443 19.6212 24.2363 19.7858C24.1817 19.815 24.1277 19.845 24.0731 19.8749C22.0032 20.9946 19.9333 22.1144 17.8633 23.2348C16.3689 24.0431 14.8723 24.8463 13.3836 25.6646C12.9947 25.8784 12.6506 25.872 12.2596 25.6596C8.69167 23.7202 5.11668 21.7922 1.54523 19.8592C1.42885 19.7965 1.30893 19.7316 1.211 19.6454C0.745499 19.2356 0.856197 18.5492 1.44162 18.2306C2.69266 17.5492 3.94724 16.8735 5.1997 16.1957C5.28414 16.1501 5.36646 16.1023 5.50128 16.0268L5.50199 16.0261ZM3.58747 7.0561C3.67263 7.1117 3.71378 7.14234 3.75849 7.16658C6.72464 8.77026 9.69009 10.3747 12.6612 11.9691C12.7542 12.019 12.9223 12.0097 13.0181 11.9584C15.9722 10.3704 18.9221 8.77312 21.8719 7.17656C21.9287 7.14591 21.9791 7.10314 22.0472 7.0561C21.9826 7.01547 21.9464 6.99053 21.9081 6.96986C18.9497 5.37045 15.9907 3.77246 13.0352 2.16735C12.8705 2.07826 12.7499 2.09964 12.5973 2.18303C10.7467 3.18943 8.89391 4.19014 7.04113 5.19155C5.90505 5.80594 4.76897 6.4189 3.58889 7.05539L3.58747 7.0561ZM22.0663 13.0468C21.9705 12.989 21.9202 12.9562 21.8676 12.9284C20.7592 12.3376 19.6487 11.7517 18.5446 11.1523C18.3686 11.0568 18.2401 11.0518 18.0613 11.1501C16.4945 12.0097 14.9185 12.8515 13.3531 13.7132C12.9741 13.922 12.6342 13.9277 12.2539 13.7182C10.6807 12.8522 9.09899 12.0026 7.52366 11.1409C7.36684 11.0553 7.2455 11.0482 7.08583 11.1359C6.17186 11.6398 5.2515 12.1323 4.33327 12.6291C4.09626 12.7574 3.85996 12.8878 3.59173 13.0346C3.6783 13.0895 3.72585 13.1245 3.77765 13.1523C6.73458 14.7509 9.69222 16.3482 12.6463 17.9512C12.7953 18.0317 12.9039 18.0061 13.0366 17.9341C15.0121 16.8628 16.9891 15.7951 18.9654 14.726C19.9836 14.175 21.0019 13.6227 22.0663 13.0468ZM3.58818 19.0075C3.6783 19.0652 3.72656 19.1001 3.77836 19.1279C6.73529 20.7266 9.69293 22.3239 12.647 23.9269C12.796 24.0074 12.9046 23.9818 13.0373 23.9098C15.9694 22.3211 18.9029 20.7345 21.8357 19.1472C21.9017 19.1115 21.9627 19.0681 22.0507 19.0132C21.9705 18.9654 21.9209 18.9326 21.8684 18.9049C20.76 18.314 19.6494 17.7281 18.5453 17.1287C18.3693 17.0332 18.2409 17.0282 18.062 17.1265C16.5186 17.974 14.9639 18.7987 13.4255 19.6547C12.9805 19.902 12.6009 19.8927 12.1595 19.6468C10.614 18.7858 9.05499 17.9498 7.4967 17.1116C7.40941 17.0645 7.26324 17.0332 7.18589 17.0745C5.99801 17.7032 4.81651 18.3446 3.58747 19.0082L3.58818 19.0075Z" fill="#D3FF00"/>
</svg>
