<svg width="23" height="28" viewBox="0 0 23 28" fill="none" xmlns="http://www.w3.org/2000/svg">
<path d="M10.2324 25.3557V23.5862C8.64675 23.6842 7.10662 23.4955 5.60207 23.0162C3.98152 22.5 2.51825 21.6846 1.21512 20.573C0.76959 20.1933 0.755356 19.6494 1.15889 19.2181C1.71687 18.6206 2.26987 18.0179 2.83994 17.4008C0.709095 15.1935 -0.279463 12.4744 0.0970287 9.29851C0.383846 6.88649 1.46066 4.86945 3.26269 3.28007C6.91019 0.0628337 12.6003 0.123824 16.2535 4.03592C16.3851 3.87981 16.509 3.71572 16.6506 3.5705C17.1139 3.0942 17.5829 2.62297 18.0512 2.15248C18.5437 1.65729 19.1045 1.70376 19.5273 2.26938C21.5585 4.98708 22.4005 8.06345 22.1378 11.4579C21.8332 15.3968 20.1273 18.5727 17.0755 20.9847C15.6307 22.1268 13.9966 22.8783 12.2145 23.2893C12.1298 23.3089 12.0466 23.3335 11.9604 23.356V25.3557C12.0651 25.3557 12.1597 25.3557 12.2537 25.3557C13.5675 25.3557 14.882 25.3535 16.1958 25.3571C16.605 25.3586 16.9146 25.6033 17.0285 25.9917C17.1324 26.3468 17.0036 26.7446 16.6833 26.9407C16.5381 27.0293 16.3524 27.0924 16.1851 27.0924C12.7931 27.1011 9.40115 27.1004 6.00917 27.0975C5.50884 27.0975 5.13377 26.7171 5.13092 26.2328C5.12807 25.7347 5.50457 25.3586 6.0234 25.3571C7.32013 25.3535 8.61614 25.3557 9.91287 25.3557C10.0097 25.3557 10.1072 25.3557 10.2317 25.3557H10.2324ZM7.68808 18.2038C8.9599 18.5168 10.1911 18.4057 11.4302 18.0405C11.3249 17.0646 11.226 16.1185 11.1185 15.1739C11.0872 14.8965 11.0573 14.6039 11.2573 14.3992C11.4317 14.2206 11.6587 14.0732 11.8893 13.9795C13.4942 13.3268 15.1069 12.6951 16.7132 12.0453C16.8136 12.0046 16.9367 11.8783 16.9502 11.7773C17.3829 8.60365 16.2976 6.07401 13.8265 4.13975C13.7824 4.10489 13.7262 4.08674 13.655 4.04971C13.655 5.57737 13.655 7.07381 13.655 8.57098C13.655 9.36603 13.3597 9.66445 12.5732 9.66445C11.7476 9.66445 10.9228 9.67244 10.0972 9.65864C9.8844 9.65501 9.7627 9.73125 9.641 9.90042C9.04174 10.7332 8.42612 11.5537 7.82829 12.388C7.74715 12.5012 7.6952 12.6646 7.69448 12.8055C7.68523 14.5117 7.68879 16.2173 7.68879 17.9236V18.2045L7.68808 18.2038ZM11.9249 7.92114C11.937 7.87032 11.9483 7.84491 11.9483 7.81949C11.9498 6.31216 11.9469 4.80556 11.9548 3.29822C11.9555 3.13631 11.8729 3.10291 11.7562 3.06878C8.80902 2.19749 6.22339 2.84951 3.98436 4.98635C3.84345 5.12067 3.8527 5.2216 3.93668 5.38061C4.29111 6.05078 4.64127 6.72312 4.97008 7.40636C5.06402 7.60167 5.12096 7.83619 5.12452 8.05329C5.14017 9.13369 5.12523 10.2141 5.13448 11.2938C5.13804 11.7316 4.96581 12.0351 4.58575 12.2362C3.98792 12.5535 3.3965 12.8846 2.80364 13.2113C2.63497 13.3043 2.46914 13.4016 2.29691 13.4996C3.04776 15.3162 4.25979 16.65 5.98426 17.5598V17.2164C5.98426 15.6183 5.98781 14.0209 5.98141 12.4228C5.97999 12.1266 6.06112 11.8775 6.23549 11.6423C6.9536 10.673 7.69662 9.72036 8.36491 8.7162C8.77129 8.10484 9.24458 7.84418 9.96483 7.90735C10.6146 7.96471 11.2722 7.91969 11.9263 7.91969L11.9249 7.92114ZM3.11395 19.844C7.00342 22.7701 13.3789 22.7759 17.5139 18.2394C21.6546 13.6956 20.913 7.25098 18.6377 4.04899C18.2064 4.50569 17.7758 4.96166 17.3331 5.42998C17.3587 5.47718 17.3957 5.54833 17.4363 5.61803C19.5885 9.34643 19.0562 14.0913 16.0834 17.1742C13.8479 19.4933 11.1121 20.4046 7.95639 19.9711C6.70877 19.7997 5.55652 19.3467 4.48185 18.6816C4.37794 18.617 4.28328 18.5298 4.16087 18.6707C3.81854 19.0642 3.46767 19.4498 3.11395 19.844ZM2.69974 6.71659C1.86206 8.32121 1.54677 9.96504 1.82505 11.7563C2.34673 11.4717 2.84137 11.2088 3.32604 10.9285C3.38582 10.8944 3.42069 10.7666 3.42141 10.6817C3.42852 9.89171 3.4271 9.10174 3.42354 8.31177C3.42354 8.22392 3.41286 8.12735 3.37586 8.05111C3.16519 7.622 2.94527 7.19797 2.69974 6.71586V6.71659ZM13.075 17.3812C14.0586 17.0305 15.9417 15.0577 16.1353 14.1581C15.0656 14.5851 14.0109 15.004 12.9597 15.4309C12.917 15.4484 12.8743 15.5428 12.8793 15.5965C12.939 16.1911 13.0081 16.7843 13.075 17.3812Z" fill="#D3FF00"/>
</svg>
